<svg width="227" height="53" viewBox="0 0 227 53" fill="none" xmlns="http://www.w3.org/2000/svg">
<rect width="217" height="53" fill="black"/>
<path d="M19 6H9" stroke="white" stroke-width="10"/>
<path d="M37.8572 6H27.8572" stroke="white" stroke-width="10"/>
<path d="M56.7141 6H46.7141" stroke="white" stroke-width="10"/>
<path d="M75.5715 6H65.5715" stroke="white" stroke-width="10"/>
<path d="M94.4287 6H84.4287" stroke="white" stroke-width="10"/>
<path d="M113.286 6H103.286" stroke="white" stroke-width="10"/>
<path d="M132.143 6H122.143" stroke="white" stroke-width="10"/>
<path d="M151 6H141" stroke="white" stroke-width="10"/>
<path d="M169.857 6H159.857" stroke="white" stroke-width="10"/>
<path d="M188.714 6H178.714" stroke="white" stroke-width="10"/>
<path d="M207.572 6H197.572" stroke="white" stroke-width="10"/>
<path d="M19 47H9" stroke="white" stroke-width="10"/>
<path d="M19 47H9" stroke="white" stroke-width="10"/>
<path d="M37.8572 47H27.8572" stroke="white" stroke-width="10"/>
<path d="M56.7141 47H46.7141" stroke="white" stroke-width="10"/>
<path d="M75.5715 47H65.5715" stroke="white" stroke-width="10"/>
<path d="M94.4287 47H84.4287" stroke="white" stroke-width="10"/>
<path d="M113.286 47H103.286" stroke="white" stroke-width="10"/>
<path d="M132.143 47H122.143" stroke="white" stroke-width="10"/>
<path d="M151 47H141" stroke="white" stroke-width="10"/>
<path d="M169.857 47H159.857" stroke="white" stroke-width="10"/>
<path d="M188.714 47H178.714" stroke="white" stroke-width="10"/>
<path d="M207.572 47H197.572" stroke="white" stroke-width="10"/>
<path d="M20.526 40L9.278 13.4H18.93L28.088 35.858H22.35L31.774 13.4H40.59L29.342 40H20.526ZM45.4724 40V13.4H54.4404V40H45.4724ZM62.7476 40V13.4H75.8576C78.8216 13.4 81.4309 13.9447 83.6856 15.034C85.9402 16.098 87.7009 17.618 88.9676 19.594C90.2342 21.57 90.8676 23.926 90.8676 26.662C90.8676 29.4233 90.2342 31.8047 88.9676 33.806C87.7009 35.782 85.9402 37.3147 83.6856 38.404C81.4309 39.468 78.8216 40 75.8576 40H62.7476ZM71.7156 33.008H75.4776C76.7442 33.008 77.8462 32.7673 78.7836 32.286C79.7462 31.8047 80.4936 31.0953 81.0256 30.158C81.5576 29.1953 81.8236 28.03 81.8236 26.662C81.8236 25.3193 81.5576 24.1793 81.0256 23.242C80.4936 22.3047 79.7462 21.5953 78.7836 21.114C77.8462 20.6327 76.7442 20.392 75.4776 20.392H71.7156V33.008ZM98.1321 40V13.4H107.1V40H98.1321ZM112.519 40L124.147 13.4H132.963L144.591 40H135.319L126.731 17.656H130.227L121.639 40H112.519ZM119.435 35.364L121.715 28.904H133.951L136.231 35.364H119.435ZM150.012 40V13.4H162.818C165.301 13.4 167.442 13.8053 169.24 14.616C171.064 15.4267 172.47 16.592 173.458 18.112C174.446 19.6067 174.94 21.38 174.94 23.432C174.94 25.484 174.446 27.2573 173.458 28.752C172.47 30.2213 171.064 31.3487 169.24 32.134C167.442 32.9193 165.301 33.312 162.818 33.312H154.99L158.98 29.626V40H150.012ZM165.934 40L159.398 30.31H168.898L175.51 40H165.934ZM158.98 30.614L154.99 26.548H162.248C163.49 26.548 164.402 26.2693 164.984 25.712C165.592 25.1547 165.896 24.3947 165.896 23.432C165.896 22.4693 165.592 21.7093 164.984 21.152C164.402 20.5947 163.49 20.316 162.248 20.316H154.99L158.98 16.25V30.614ZM188.786 40V28.334L190.838 33.692L178.754 13.4H188.216L196.386 27.27H190.876L199.122 13.4H207.786L195.778 33.692L197.754 28.334V40H188.786Z" fill="white"/>
</svg>
